Coordinates
version=1
nRows=20
nColumns=23
inDegrees=yes

Units are S.I. units (second, meters, Newtons, ...)
If the header above contains a line with 'inDegrees', this indicates whether rotational values are in degrees (yes) or radians (no).

endheader
time	pelvis_tilt	pelvis_list	pelvis_rotation	pelvis_tx	pelvis_ty	pelvis_tz	hip_flexion_r	hip_adduction_r	hip_rotation_r	knee_angle_r	knee_angle_r_beta	ankle_angle_r	subtalar_angle_r	mtp_angle_r	hip_flexion_l	hip_adduction_l	hip_rotation_l	knee_angle_l	knee_angle_l_beta	ankle_angle_l	subtalar_angle_l	mtp_angle_l
      0.00000000	     -6.67756892	      9.50678701	     10.87376416	      2.38571421	      1.01896583	      1.04148188	    -11.59173295	    -14.19195033	    -19.71659893	     84.40025303	      1.47306230	    -36.13795412	    -19.79638379	      0.00000000	     30.15831648	     16.35453138	     -2.15822140	     16.84853121	      0.29406234	     11.12057579	      5.56416427	      0.00000000
      0.00666667	     -6.84403647	      9.92783789	     11.69967487	      2.38277519	      1.01298819	      1.04080818	     -9.51199749	    -15.20028506	    -19.57969943	     88.48184671	      1.54429955	    -35.13429526	    -20.50671911	      0.00000000	     31.27111117	     17.04420979	     -2.01247728	     21.49363978	      0.37513478	     10.22239305	      3.39993340	      0.00000000
      0.01333333	     -6.86559648	     10.18622627	     12.30739514	      2.37994528	      1.00683548	      1.04051830	     -7.49448702	    -15.98715757	    -19.13167284	     92.39915619	      1.61266950	    -34.13094661	    -21.11946661	      0.00000000	     32.15574902	     17.50714402	     -1.74462558	     25.94594655	      0.45284219	      9.45765707	      1.25922843	      0.00000000
      0.02000000	     -6.77264087	     10.37670408	     12.83569868	      2.37720929	      1.00070213	      1.04033462	     -5.55731155	    -16.68307390	    -18.56444009	     96.11889771	      1.67759124	    -33.12818143	    -21.60885987	      0.00000000	     32.77374445	     17.92773225	     -1.25442882	     30.17065449	      0.52657726	      9.13268425	     -0.75582850	      0.00000000
      0.02666667	     -6.56101378	     10.51144450	     13.30025214	      2.37437898	      0.99480361	      1.04024208	     -3.64697152	    -17.29086706	    -17.86866417	     99.64298618	      1.73909819	    -32.13958465	    -21.93876460	      0.00000000	     33.11520506	     18.29471525	     -0.65907911	     34.16657895	      0.59631930	      9.38406707	     -2.47214194	      0.00000000
      0.03333333	     -6.20464127	     10.59506811	     13.68967794	      2.37148471	      0.98934512	      1.04027854	     -1.75310177	    -17.80028221	    -17.03062057	    102.93822772	      1.79661100	    -31.14363787	    -22.12527751	      0.00000000	     33.12314003	     18.57395453	     -0.01822712	     37.91530284	      0.66174687	     10.34401961	     -3.75055536	      0.00000000
      0.04000000	     -5.80490210	     10.58628634	     14.01279776	      2.36846043	      0.98432941	      1.04044366	      0.28668601	    -18.18774753	    -16.03578580	    106.01076990	      1.85023698	    -30.15214607	    -22.12919166	      0.00000000	     32.88390552	     18.70448348	      0.59995887	     41.37420576	      0.72211612	     11.88702399	     -4.53873144	      0.00000000
      0.04666667	     -5.30507825	     10.45901744	     14.29267760	      2.36537146	      0.97996635	      1.04071522	      2.39663388	    -18.38636595	    -14.94950106	    108.79593987	      1.89884736	    -29.14142531	    -21.94651037	      0.00000000	     32.27962458	     18.64029431	      1.25430429	     44.46249580	      0.77601695	     13.91121610	     -4.82733365	      0.00000000
      0.05333333	     -4.73671389	     10.22016987	     14.51475042	      2.36226625	      0.97629638	      1.04109803	      4.61271413	    -18.41592862	    -13.78194277	    111.27268254	      1.94207468	    -28.13660815	    -21.58951544	      0.00000000	     31.32696947	     18.35238212	      1.88124903	     47.13476092	      0.82265677	     16.24229922	     -4.72205738	      0.00000000
      0.06000000	     -4.14904607	      9.88131856	     14.65383205	      2.35924016	      0.97337006	      1.04160460	      6.96836642	    -18.27992960	    -12.53873231	    113.41293258	      1.97942909	    -27.11251873	    -21.09934003	      0.00000000	     30.04444238	     17.85318120	      2.50891327	     49.31912174	      0.86078106	     18.77180582	     -4.25668012	      0.00000000
      0.06666667	     -3.56259766	      9.42073348	     14.72781069	      2.35638305	      0.97120094	      1.04213757	      9.43783153	    -17.96269546	    -11.29173234	    115.18353877	      2.01033200	    -26.03058898	    -20.46480668	      0.00000000	     28.45691368	     17.13621066	      3.16101753	     50.99250521	      0.88998711	     21.29621691	     -3.60243748	      0.00000000
      0.07333333	     -2.95483645	      8.85554594	     14.73012325	      2.35377316	      0.96988505	      1.04261266	     11.94604320	    -17.47702377	    -10.09290690	    116.55000711	      2.03418137	    -24.83468227	    -19.63163599	      0.00000000	     26.54885942	     16.25074434	      3.88779213	     52.14544938	      0.91010978	     23.63871251	     -3.09212088	      0.00000000
      0.08000000	     -2.42021022	      8.22126617	     14.59545283	      2.35157820	      0.96926858	      1.04317042	     14.55531116	    -16.87343264	     -8.90962167	    117.51723117	      2.05106261	    -23.57886956	    -18.79043464	      0.00000000	     24.45902793	     15.13594320	      4.41160932	     52.80331729	      0.92159174	     25.80979638	     -2.31949892	      0.00000000
      0.08666667	     -1.90226480	      7.57030077	     14.38610861	      2.34985632	      0.96951979	      1.04349625	     17.09758300	    -16.23403911	     -7.85238211	    118.04654444	      2.06030087	    -22.28440247	    -18.00711239	      0.00000000	     22.08263384	     14.00590023	      5.02048672	     52.89787999	      0.92324217	     27.47589815	     -2.04894123	      0.00000000
      0.09333333	     -1.44787433	      6.85064727	     14.03306605	      2.34869671	      0.97055316	      1.04383124	     19.63303643	    -15.44619064	     -6.88463399	    118.15278807	      2.06215517	    -20.84373053	    -17.09159134	      0.00000000	     19.54624630	     12.67503844	      5.38339921	     52.48968907	      0.91611790	     28.50793105	     -1.68633059	      0.00000000
      0.10000000	     -1.09870191	      6.12720537	     13.60330904	      2.34812266	      0.97229165	      1.04398624	     22.11264295	    -14.67285733	     -6.08356218	    117.84149912	      2.05672216	    -19.31141405	    -16.38432591	      0.00000000	     16.87986067	     11.35401973	      5.70140217	     51.59238580	      0.90045700	     29.02524379	     -1.61680155	      0.00000000
      0.10666667	     -0.27385543	      5.25411271	     13.07680875	      2.34844257	      0.97556501	      1.04419066	     23.80396682	    -13.54539529	     -5.66629119	    116.95514612	      2.04125238	    -17.82312864	    -15.57862111	      0.00000000	     13.48916088	      9.60988957	      5.74709050	     50.20490052	      0.87624081	     29.25318891	     -0.90654226	      0.00000000
      0.11333333	      0.34581977	      4.29263730	     12.46820261	      2.34930379	      0.97923316	      1.04430447	     25.53232735	    -12.34538331	     -5.41674823	    115.70915655	      2.01950576	    -16.34183475	    -15.07950686	      0.00000000	     10.17241603	      7.84980877	      5.68855934	     48.45917907	      0.84577223	     29.32126284	     -0.43650761	      0.00000000
      0.12000000	      0.96378866	      3.17557568	     11.80099850	      2.35075155	      0.98352614	      1.04445003	     27.03550444	    -10.94598789	     -5.43522908	    114.06312957	      1.99077717	    -14.90277699	    -14.82899611	      0.00000000	      6.75735789	      5.88798791	      5.35993587	     46.41568363	      0.81010650	     29.29868422	      0.41938049	      0.00000000
      0.12666667	      1.19155716	      2.15208363	     10.90836025	      2.35253479	      0.98772825	      1.04473293	     28.84547869	     -9.61416809	     -5.32019917	    112.20459488	      1.95833962	    -13.52054636	    -14.46646851	      0.00000000	      3.63851580	      4.18553876	      4.73298746	     44.11816685	      0.77000727	     29.11714924	      1.13470465	      0.00000000
